<svg xmlns="http://www.w3.org/2000/svg" xmlns:xlink="http://www.w3.org/1999/xlink" viewBox="0 0 750 500"><defs><style>.cls-1{isolation:isolate;}.cls-2,.cls-5{fill:#f2f2f2;}.cls-12,.cls-3,.cls-5{mix-blend-mode:multiply;}.cls-3{fill:url(#Degradado_sin_nombre_2);}.cls-4{fill:url(#Degradado_sin_nombre_24);}.cls-6{fill:url(#Degradado_sin_nombre_13);}.cls-7{mix-blend-mode:screen;fill:url(#Degradado_sin_nombre_21);}.cls-8{fill:url(#Degradado_sin_nombre_19);}.cls-9{fill:url(#Degradado_sin_nombre_25);}.cls-10{fill:url(#Degradado_sin_nombre_23);}.cls-11{fill:url(#Degradado_sin_nombre_18);}.cls-12{fill:url(#Degradado_sin_nombre_26);}</style><linearGradient id="Degradado_sin_nombre_2" x1="464.51" y1="94.95" x2="519.01" y2="39.77" gradientUnits="userSpaceOnUse"><stop offset="0" stop-color="#999"/><stop offset="1" stop-color="#fff"/></linearGradient><linearGradient id="Degradado_sin_nombre_24" x1="439.31" y1="116.67" x2="652.4" y2="-15.98" gradientUnits="userSpaceOnUse"><stop offset="0" stop-color="#e6e6e6"/><stop offset="1" stop-color="#e6e6e6"/></linearGradient><linearGradient id="Degradado_sin_nombre_13" x1="614.77" y1="310.19" x2="485.06" y2="412.87" gradientUnits="userSpaceOnUse"><stop offset="0" stop-color="#999"/><stop offset="1" stop-color="#ccc"/></linearGradient><linearGradient id="Degradado_sin_nombre_21" x1="252.45" y1="299.69" x2="561.82" y2="496.13" gradientUnits="userSpaceOnUse"><stop offset="0" stop-color="#ccc"/><stop offset="1" stop-color="gray"/></linearGradient><linearGradient id="Degradado_sin_nombre_19" x1="248.85" y1="507.05" x2="510.84" y2="363.09" gradientUnits="userSpaceOnUse"><stop offset="0" stop-color="#ccc"/><stop offset="0.98" stop-color="#e6e6e6"/></linearGradient><linearGradient id="Degradado_sin_nombre_25" x1="152.67" y1="323.17" x2="297.23" y2="445.02" gradientUnits="userSpaceOnUse"><stop offset="0" stop-color="#f2f2f2"/><stop offset="1" stop-color="#e6e6e6"/></linearGradient><linearGradient id="Degradado_sin_nombre_23" x1="131.58" y1="308.21" x2="214.33" y2="414.59" gradientUnits="userSpaceOnUse"><stop offset="0" stop-color="#ccc"/><stop offset="1" stop-color="#e6e6e6"/></linearGradient><linearGradient id="Degradado_sin_nombre_18" x1="239.1" y1="106.72" x2="380.66" y2="21.53" gradientUnits="userSpaceOnUse"><stop offset="0" stop-color="#e6e6e6"/><stop offset="1" stop-color="#ccc"/></linearGradient><linearGradient id="Degradado_sin_nombre_26" x1="314.96" y1="297.53" x2="236.51" y2="210.71" gradientUnits="userSpaceOnUse"><stop offset="0" stop-color="#ccc"/><stop offset="0.17" stop-color="#dcdcdc"/><stop offset="0.44" stop-color="#efefef"/><stop offset="0.72" stop-color="#fbfbfb"/><stop offset="1" stop-color="#fff"/></linearGradient></defs><g class="cls-1"><g id="Capa_2" data-name="Capa 2"><g id="BACKGROUND_2" data-name="BACKGROUND 2"><rect class="cls-2" width="750" height="500"/><polygon class="cls-3" points="750 313.42 750 260.75 481 0 57 0 57 282 750 313.42"/><polyline class="cls-4" points="750 159.8 542.38 0 0 0 0 286.42 750 313.42"/><polygon class="cls-5" points="0 0 0 282 750 316 750 242.54 0 0"/><path class="cls-6" d="M750,500V316L423.79,246.18,0,500Z"/><path class="cls-7" d="M750,316,348.39,0H0V500H750Z"/><path class="cls-8" d="M0,500H561.51L423.79,246.18Z"/><path class="cls-9" d="M423.79,246.18,318.14,499.86,0,500H0V0Z"/><path class="cls-10" d="M0,500H561.51L2,260.23Q1,380.13,0,500Z"/><path class="cls-11" d="M0,0,423.79,246.18,290.22,0Z"/><path class="cls-12" d="M467.45,0,0,427.9V500C-.47,500,545,1.1,545,1.1L542.51,0"/></g></g></g></svg>