<svg width="1920" height="1080" viewBox="0 0 1920 1080" fill="none" xmlns="http://www.w3.org/2000/svg">
<g clip-path="url(#clip0)">
<path d="M1920 0H0V1080H1920V0Z" fill="#F2F2F2"/>
<path d="M1920 459L1524.48 0H0V618.667L1920 676.987" fill="url(#paint0_linear)"/>
<path d="M1920 1080V467.5L1116 560L0 1080H1920Z" fill="url(#paint1_linear)"/>
<path style="mix-blend-mode:screen" d="M1921 523.5L747.52 0H0V1080H1521.92L1921 523.5Z" fill="url(#paint2_linear)"/>
<path d="M0 1080H1523.2L1119.5 560L0 1080Z" fill="url(#paint3_linear)"/>
<path d="M1522 0L744.96 1080H0V0H1522Z" fill="url(#paint4_linear)"/>
<path d="M5.36144e-05 1080H745.551L-1.09673e-05 561.6C-1.70668 734.256 1.70672 907.387 5.36144e-05 1080Z" fill="url(#paint5_linear)"/>
<path d="M0 0L1119.5 560L742.963 0H0Z" fill="url(#paint6_linear)"/>
</g>
<defs>
<linearGradient id="paint0_linear" x1="1124.63" y1="252.007" x2="1614.75" y2="-109.595" gradientUnits="userSpaceOnUse">
<stop stop-color="#FCFCFC"/>
<stop offset="1" stop-color="#EBEBEB"/>
</linearGradient>
<linearGradient id="paint1_linear" x1="1573.81" y1="670.01" x2="1286.54" y2="939.533" gradientUnits="userSpaceOnUse">
<stop stop-color="#F3F1F1"/>
<stop offset="1" stop-color="#F1F1F1"/>
</linearGradient>
<linearGradient id="paint2_linear" x1="646.272" y1="647.33" x2="1355.76" y2="1181.26" gradientUnits="userSpaceOnUse">
<stop stop-color="#CCCCCC"/>
<stop offset="1" stop-color="#808080"/>
</linearGradient>
<linearGradient id="paint3_linear" x1="637.056" y1="1095.23" x2="1250.21" y2="695.917" gradientUnits="userSpaceOnUse">
<stop stop-color="white"/>
<stop offset="0.98" stop-color="#FAFAFA"/>
</linearGradient>
<linearGradient id="paint4_linear" x1="390.835" y1="698.047" x2="707.656" y2="1014.55" gradientUnits="userSpaceOnUse">
<stop stop-color="#FCFCFC"/>
<stop offset="1" stop-color="#F9F9F9"/>
</linearGradient>
<linearGradient id="paint5_linear" x1="336.845" y1="665.734" x2="506.031" y2="923.51" gradientUnits="userSpaceOnUse">
<stop stop-color="#F9F9F9"/>
<stop offset="1" stop-color="#F7F7F7"/>
</linearGradient>
<linearGradient id="paint6_linear" x1="612.096" y1="230.515" x2="939.288" y2="-2.85034" gradientUnits="userSpaceOnUse">
<stop stop-color="#F7F7F7"/>
<stop offset="1" stop-color="#F5F5F5"/>
</linearGradient>
<clipPath id="clip0">
<rect width="1920" height="1080" fill="white"/>
</clipPath>
</defs>
</svg>
