<svg xmlns="http://www.w3.org/2000/svg" xmlns:xlink="http://www.w3.org/1999/xlink" viewBox="0 0 738.26 869.02"><defs><style>.cls-1{fill:url(#Degradado_sin_nombre_9);}.cls-2{fill:url(#Degradado_sin_nombre_14);}.cls-3{fill:url(#Degradado_sin_nombre_22);}.cls-4{fill:url(#Degradado_sin_nombre_22-2);}</style><radialGradient id="Degradado_sin_nombre_9" cx="369.13" cy="286.38" fx="94.12525666000403" fy="61.20156401334552" r="364.02" gradientUnits="userSpaceOnUse"><stop offset="0" stop-color="#666"/><stop offset="0.91" stop-color="#333"/></radialGradient><linearGradient id="Degradado_sin_nombre_14" x1="44.77" y1="458.04" x2="781.43" y2="458.04" gradientUnits="userSpaceOnUse"><stop offset="0" stop-color="gray"/><stop offset="0.73" stop-color="#666"/></linearGradient><radialGradient id="Degradado_sin_nombre_22" cx="223.48" cy="651.64" fx="119.34256995307037" fy="476.05501614653656" r="204.15" gradientTransform="translate(0 -197.34) scale(1 1.3)" gradientUnits="userSpaceOnUse"><stop offset="0.1" stop-color="#f2f2f2"/><stop offset="0.28" stop-color="#e3e3e3"/><stop offset="0.6" stop-color="#ccc"/></radialGradient><radialGradient id="Degradado_sin_nombre_22-2" cx="3082.61" cy="651.69" fx="2978.471741184044" fy="476.10381162662526" r="204.15" gradientTransform="matrix(-1, 0, 0, 1.3, 3604.55, -197.35)" xlink:href="#Degradado_sin_nombre_22"/></defs><g id="Capa_2" data-name="Capa 2"><g id="Capa_3" data-name="Capa 3"><path class="cls-1" d="M737.9,286.38c-6.5,106.84-96.22,172.46-151,210.77-35.17,24.57-110,75.31-217.73,75.61-123.61.35-207.46-65.89-240.29-92.62C83.17,442.94,6.26,382.38.36,286.38c-4.63-75.29,36.67-131.66,51-151.22C141.16,12.57,306.22,1.21,357.4.12c1.31,0,5.72-.13,11.73-.12,52.65.09,181.23.31,271.51,81.05C654.38,93.33,744.72,174.11,737.9,286.38Z"/><path class="cls-2" d="M369.93,487.64c0,73,82.45,132.21,184.17,132.21s184.16-59.19,184.16-132.21c0-27.53-11.72-53.09-31.77-74.25h.24l-1.85-1.66a158.63,158.63,0,0,0-24.62-20.38c-51.35-39.49-165.67-110.55-323.87-104.73C171,293.43,55.26,401.1,30.61,425.16l1.1,0C12.68,446,1.59,470.84,1.59,497.6c0,73,82.46,132.21,184.17,132.21S369.93,570.62,369.93,497.6"/><path class="cls-3" d="M318.33,869a173.55,173.55,0,0,1-51.61-15.39C119,782.5,128.08,517.6,129.07,495.88l89.65-61.57a512.84,512.84,0,0,0-7.24,53.42c-13.29,161.56,53.08,296.51,106.85,379.43"/><path class="cls-4" d="M427.09,869a173.55,173.55,0,0,0,51.61-15.39c147.68-71.08,138.64-336,137.65-357.7L526.7,434.36a512.84,512.84,0,0,1,7.24,53.42c13.29,161.56-53.08,296.51-106.85,379.43"/></g></g></svg>