<svg xmlns="http://www.w3.org/2000/svg" xmlns:xlink="http://www.w3.org/1999/xlink" viewBox="0 0 1080 1080"><defs><style>.cls-1{fill:url(#Degradado_sin_nombre_29);}.cls-2{fill:url(#Degradado_sin_nombre_9);}.cls-3{fill:url(#Degradado_sin_nombre_14);}.cls-4{fill:url(#Degradado_sin_nombre_22);}.cls-5{fill:url(#Degradado_sin_nombre_22-2);}</style><radialGradient id="Degradado_sin_nombre_29" cx="540" cy="540" r="540" gradientUnits="userSpaceOnUse"><stop offset="0.38" stop-color="#4d4d4d"/><stop offset="0.86" stop-color="#333"/></radialGradient><radialGradient id="Degradado_sin_nombre_9" cx="541.89" cy="415.22" fx="266.88033826808885" fy="190.0450880306524" r="364.02" gradientUnits="userSpaceOnUse"><stop offset="0" stop-color="#666"/><stop offset="0.91" stop-color="#333"/></radialGradient><linearGradient id="Degradado_sin_nombre_14" x1="217.52" y1="586.88" x2="954.19" y2="586.88" gradientUnits="userSpaceOnUse"><stop offset="0" stop-color="gray"/><stop offset="0.73" stop-color="#666"/></linearGradient><radialGradient id="Degradado_sin_nombre_22" cx="396.24" cy="780.48" fx="292.09765156115895" fy="604.8985401638462" r="204.15" gradientTransform="translate(0 -236.36) scale(1 1.3)" gradientUnits="userSpaceOnUse"><stop offset="0.1" stop-color="#f2f2f2"/><stop offset="0.28" stop-color="#e3e3e3"/><stop offset="0.6" stop-color="#ccc"/></radialGradient><radialGradient id="Degradado_sin_nombre_22-2" cx="384.37" cy="780.53" fx="280.2279653076446" fy="604.947335579484" r="204.15" gradientTransform="matrix(-1, 0, 0, 1.3, 1079.06, -236.37)" xlink:href="#Degradado_sin_nombre_22"/></defs><g id="Capa_2" data-name="Capa 2"><g id="Capa_3" data-name="Capa 3"><circle class="cls-1" cx="540" cy="540" r="540"/><path class="cls-2" d="M910.65,415.22c-6.49,106.85-96.21,172.47-151,210.77-35.16,24.57-110,75.31-217.73,75.61C418.28,702,334.42,635.72,301.59,609,255.93,571.79,179,511.22,173.11,415.22c-4.62-75.28,36.68-131.66,51-151.22,89.8-122.59,254.86-133.95,306-135,1.3,0,5.72-.13,11.72-.12,52.66.09,181.23.31,271.52,81C827.14,222.18,917.47,303,910.65,415.22Z"/><path class="cls-3" d="M542.68,616.48c0,73,82.46,132.21,184.17,132.21S911,689.5,911,616.48c0-27.52-11.72-53.08-31.77-74.25h.23l-1.85-1.67A159.11,159.11,0,0,0,853,520.18c-51.36-39.49-165.68-110.55-323.87-104.73C343.72,422.27,228,530,203.36,554l1.11,0c-19,20.81-30.12,45.71-30.12,72.46,0,73,82.45,132.21,184.17,132.21s184.16-59.19,184.16-132.21"/><path class="cls-4" d="M491.09,997.81a173.61,173.61,0,0,1-51.62-15.39c-147.68-71.08-138.64-336-137.64-357.69l89.65-61.58a512.63,512.63,0,0,0-7.25,53.43C371,778.13,437.32,913.08,491.09,996"/><path class="cls-5" d="M599.84,997.86a173.61,173.61,0,0,0,51.62-15.39c147.68-71.08,138.63-336,137.64-357.69L699.45,563.2a515.33,515.33,0,0,1,7.25,53.43C720,778.18,653.61,913.13,599.84,996.05"/></g></g></svg>